<svg xmlns="http://www.w3.org/2000/svg" width="240" height="240">
	<g transform="scale(10)">
		<g transform="translate(-4,7)">
			<g transform="rotate(-30)">
				<path fill="#ffd600" stroke="#000000" stroke-width="0.1" d="M12 3c-4.97 0-9 4.03-9 9s4.03 9 9 9c.83 0 1.5-.67 1.5-1.5 0-.39-.15-.74-.39-1.01-.23-.26-.38-.61-.38-.99 0-.83.67-1.5 1.5-1.5H16c2.76 0 5-2.24 5-5 0-4.42-4.03-8-9-8zm-5.5 9c-.83 0-1.5-.67-1.5-1.5S5.67 9 6.5 9 8 9.67 8 10.5 7.33 12 6.5 12zm3-4C8.67 8 8 7.33 8 6.5S8.67 5 9.5 5s1.5.67 1.5 1.5S10.33 8 9.5 8zm5 0c-.83 0-1.5-.67-1.5-1.5S13.67 5 14.5 5s1.5.67 1.5 1.5S15.33 8 14.5 8zm3 4c-.83 0-1.5-.67-1.5-1.5S16.67 9 17.5 9s1.5.67 1.5 1.5-.67 1.5-1.5 1.5z" />
				<path d="M0 0h24v24H0z" fill="none" />
			</g>
		</g>
		<g transform="translate(-27,-187.5)">
			<g transform="scale(0.45)">
				<path fill="#ffffff" stroke="#000000" stroke-width="0.22" d="M 86.102000,447.45700 L 86.102000,442.75300 L 88.102000,442.20100 L 88.102000,446.88100 L 86.102000,447.45700 z M 90.040000,446.31900 L 88.665000,446.71300 L 88.665000,442.03300 L 90.040000,441.64900 L 90.040000,439.70500 L 88.665000,440.08900 L 88.665000,435.30723 L 88.102000,435.30723 L 88.102000,440.23400 L 86.102000,440.80900 L 86.102000,436.15923 L 85.571000,436.15923 L 85.571000,440.98600 L 84.196000,441.37100 L 84.196000,443.31900 L 85.571000,442.93500 L 85.571000,447.60600 L 84.196000,447.98900 L 84.196000,449.92900 L 85.571000,449.54500 L 85.571000,454.29977 L 86.102000,454.29977 L 86.102000,449.37500 L 88.102000,448.82500 L 88.102000,453.45077 L 88.665000,453.45077 L 88.665000,448.65100 L 90.040000,448.26600 L 90.040000,446.31900 z " />
			</g>
		</g>
	</g>
</svg>
